<svg width="64" height="64" viewBox="0 0 64 64" fill="none" xmlns="http://www.w3.org/2000/svg">
<rect width="64" height="64" rx="32" fill="url(#paint0_linear_134_4025)"/>
<path d="M44.56 30.5627C44.7987 30.4574 45.0012 30.2844 45.1426 30.0651C45.2839 29.8458 45.3578 29.5899 45.3551 29.329C45.3524 29.0681 45.2732 28.8138 45.1274 28.5975C44.9815 28.3811 44.7755 28.2123 44.5346 28.112L33.1066 22.9067C32.7592 22.7482 32.3818 22.6662 32 22.6662C31.6181 22.6662 31.2407 22.7482 30.8933 22.9067L19.4666 28.1067C19.2293 28.2106 19.0273 28.3815 18.8855 28.5984C18.7437 28.8153 18.6682 29.0689 18.6682 29.328C18.6682 29.5872 18.7437 29.8407 18.8855 30.0576C19.0273 30.2745 19.2293 30.4454 19.4666 30.5493L30.8933 35.76C31.2407 35.9185 31.6181 36.0005 32 36.0005C32.3818 36.0005 32.7592 35.9185 33.1066 35.76L44.56 30.5627Z" stroke="white" stroke-width="2.66667" stroke-linecap="round" stroke-linejoin="round"/>
<path d="M45.3334 29.3333V37.3333" stroke="white" stroke-width="2.66667" stroke-linecap="round" stroke-linejoin="round"/>
<path d="M24 32.6667V37.3334C24 38.3942 24.8429 39.4116 26.3431 40.1618C27.8434 40.9119 29.8783 41.3334 32 41.3334C34.1217 41.3334 36.1566 40.9119 37.6569 40.1618C39.1571 39.4116 40 38.3942 40 37.3334V32.6667" stroke="white" stroke-width="2.66667" stroke-linecap="round" stroke-linejoin="round"/>
<defs>
<linearGradient id="paint0_linear_134_4025" x1="0" y1="32" x2="64" y2="32" gradientUnits="userSpaceOnUse">
<stop stop-color="#2563EB"/>
<stop offset="1" stop-color="#9333EA"/>
</linearGradient>
</defs>
</svg>
